<?xml version="1.0" encoding="UTF-8" standalone="no"?> <svg xmlns="http://www.w3.org/2000/svg" viewBox="0 0 64 64"><g id="Mortgage_Loan" data-name="Mortgage Loan"><rect x="3" y="35" width="58" height="26" style="fill:#0b7"/><path d="M61,19v8H49V19a4,4,0,0,1,4-4h4A4,4,0,0,1,61,19Z" style="fill:#d9ccbc"/><circle cx="55" cy="9" r="6" style="fill:#d9ccbc"/><polygon points="45 21 45 25 37 25 37 27 31 23 37 19 37 21 45 21" style="fill:#ff6243"/><polygon points="45 11 39 15 39 13 31 13 31 9 39 9 39 7 45 11" style="fill:#ff6243"/><path d="M27,12V30H20V22a2.006,2.006,0,0,0-2-2H12a2.006,2.006,0,0,0-2,2v8H3V12L15,3l6,4.91V3h4v8Z" style="fill:#ff9478"/><path d="M20,22v8H10V22a2.006,2.006,0,0,1,2-2h6A2.006,2.006,0,0,1,20,22Z" style="fill:#83d8f4"/><path d="M3,31H27a1,1,0,0,0,1-1V12a1,1,0,0,0-.553-.895L26,10.382V3a1,1,0,0,0-1-1H21a1,1,0,0,0-1,1V5.8L15.633,2.226A1,1,0,0,0,14.4,2.2l-12,9A1,1,0,0,0,2,12V30A1,1,0,0,0,3,31Zm16-2H11V22a1,1,0,0,1,1-1h6a1,1,0,0,1,1,1ZM4,12.5,14.974,4.271l5.393,4.413A1,1,0,0,0,22,7.909V4h2v7a1,1,0,0,0,.553.895L26,12.618V29H21V22a3,3,0,0,0-3-3H12a3,3,0,0,0-3,3v7H4Z"/><path d="M61,34H3a1,1,0,0,0-1,1V61a1,1,0,0,0,1,1H61a1,1,0,0,0,1-1V35A1,1,0,0,0,61,34ZM60,60H4V36H60Z"/><path d="M32,53a2,2,0,0,1-2-2H28a4,4,0,0,0,3,3.858V57h2V54.858A3.992,3.992,0,0,0,32,47a2,2,0,1,1,2-2h2a4,4,0,0,0-3-3.858V39H31v2.142A3.992,3.992,0,0,0,32,49a2,2,0,0,1,0,4Z"/><path d="M7,39h3V37H6a1,1,0,0,0-1,1v4H7Z"/><path d="M57,42h2V38a1,1,0,0,0-1-1H54v2h3Z"/><path d="M59,58V54H57v3H54v2h4A1,1,0,0,0,59,58Z"/><path d="M6,59h4V57H7V54H5v4A1,1,0,0,0,6,59Z"/><path d="M31,14h7v1a1,1,0,0,0,1.555.832l6-4a1,1,0,0,0,0-1.664l-6-4A1,1,0,0,0,38,7V8H31a1,1,0,0,0-1,1v4A1,1,0,0,0,31,14Zm1-4h7a1,1,0,0,0,1-1V8.868L43.2,11,40,13.132V13a1,1,0,0,0-1-1H32Z"/><path d="M30.445,23.832l6,4A1,1,0,0,0,38,27V26h7a1,1,0,0,0,1-1V21a1,1,0,0,0-1-1H38V19a1,1,0,0,0-1.555-.832l-6,4a1,1,0,0,0,0,1.664ZM36,20.868V21a1,1,0,0,0,1,1h7v2H37a1,1,0,0,0-1,1v.132L32.8,23Z"/><path d="M59.242,14.555a7,7,0,1,0-8.484,0A4.989,4.989,0,0,0,48,19v8a1,1,0,0,0,1,1H61a1,1,0,0,0,1-1V19A4.989,4.989,0,0,0,59.242,14.555ZM50,9a5,5,0,1,1,5,5A5.006,5.006,0,0,1,50,9ZM60,26H50V19a3,3,0,0,1,3-3h4a3,3,0,0,1,3,3Z"/></g></svg>